# AST/ASF file generated using VICON BodyLanguage
# -----------------------------------------------
:version 1.10
:name VICON
:units
  mass 1.0
  length 0.45
  angle deg
:documentation
   .ast/.asf automatically generated from VICON data using
   VICON BodyBuilder and BodyLanguage model FoxedUp or BRILLIANT.MOD
:root
   order TX TY TZ RX RY RZ
   axis XYZ
   position 0 0 0  
   orientation 0 0 0 
:bonedata
  begin
     id 1 
     name lhipjoint
     direction 0.612567 -0.751349 0.245431 
     length 2.42285 
     axis 0 0 0  XYZ
  end
  begin
     id 2 
     name lfemur
     direction 0.34202 -0.939693 0  
     length 7.11304  
     axis 0 0 20  XYZ
    dof rx ry rz
    limits (-160.0 20.0)
           (-70.0 70.0)
           (-60.0 70.0)
  end
  begin
     id 3 
     name ltibia
     direction 0.34202 -0.939693 0   
     length 7.84529   
     axis 0 0 20   XYZ
    dof rx
    limits (-10.0 170.0)
  end
  begin
     id 4 
     name lfoot
     direction 0.0779239 -0.214094 0.9737   
     length 1.97176   
     axis -90 7.62852e-016 20   XYZ
    dof rx rz
    limits (-45.0 90.0)
           (-70.0 20.0)
  end
  begin
     id 5 
     name ltoes
     direction 1.53565e-011 -4.21709e-011 1   
     length 0.993197   
     axis -90 7.62852e-016 20   XYZ
    dof rx
    limits (-90.0 20.0)
  end
  begin
     id 6 
     name rhipjoint
     direction -0.665722 -0.709315 0.231701   
     length 2.56642  
     axis 0 0 0  XYZ 
  end
  begin
     id 7 
     name rfemur
     direction -0.34202 -0.939693 0   
     length 7.32108   
     axis 0 0 -20   XYZ
    dof rx ry rz
    limits (-160.0 20.0)
           (-70.0 70.0)
           (-70.0 60.0)
  end
  begin
     id 8 
     name rtibia
     direction -0.34202 -0.939693 0   
     length 7.81254   
     axis 0 0 -20   XYZ
    dof rx
    limits (-10.0 170.0)
 end
 begin
     id 9 
     name rfoot
     direction -0.0832806 -0.228812 0.969902   
     length 2.08278  
     axis -90 -7.62852e-016 -20   XYZ
    dof rx rz
    limits (-45.0 90.0)
           (-20.0 70.0)
  end
  begin
     id 10 
     name rtoes
     direction -1.53589e-011 -4.22086e-011 1   
     length 1.04609   
     axis -90 -7.62852e-016 -20   XYZ
    dof rx
    limits (-90.0 20.0)
  end
  begin
     id 11 
     name lowerback
     direction -0.00506013 0.988403 -0.151766   
     length 2.01978   
     axis 0 0 0   XYZ
    dof rx ry rz
    limits (-20.0 45.0)
           (-30.0 30.0)
           (-30.0 30.0)
  end
  begin
     id 12 
     name upperback
     direction -0.00836389 0.99968 0.0238859   
     length 2.01276   
     axis 0 0 0   XYZ
    dof rx ry rz
    limits (-20.0 45.0)
           (-30.0 30.0)
           (-30.0 30.0)
  end
  begin
     id 13 
     name thorax
     direction -0.00684136 0.995386 0.0957043   
     length 2.07303   
     axis 0 0 0   XYZ
    dof rx ry rz
    limits (-20.0 45.0)
           (-30.0 30.0)
           (-30.0 30.0)
  end
  begin
     id 14 
     name lowerneck
     direction -0.0161045 0.999661 0.0204485   
     length 1.91243   
     axis 0 0 0   XYZ
    dof rx ry rz
    limits (-20.0 45.0)
           (-30.0 30.0)
           (-30.0 30.0)
  end
  begin
     id 15 
     name upperneck
     direction 0.0553583 0.990946 -0.122319   
     length 1.91574   
     axis 0 0 0   XYZ
    dof rx ry rz
    limits (-20.0 45.0)
           (-30.0 30.0)
           (-30.0 30.0)
  end
  begin
     id 16
     name head
     direction 0.0180273 0.998839 -0.0446756  
     length 1.92693  
     axis 0 0 0   XYZ
    dof rx ry rz
    limits (-20.0 45.0)
           (-30.0 30.0)
           (-30.0 30.0)
  end
  begin
     id 17 
     name lclavicle
     direction 0.945646 0.319323 -0.0615358  
     length 4.0076  
     axis 0 0 0   XYZ
    dof ry rz
    limits (-20.0 10.0)
           (0.0 20.0)
  end
  begin
     id 18 
     name lhumerus
     direction 1 -4.48967e-011 -2.79996e-027   
     length 5.64147   
     axis 180 -30 -90   XYZ
    dof rx ry rz
    limits (-60.0 90.0)
           (-90.0 90.0)
           (-90.0 90.0)
  end
  begin
     id 19
     name lradius
     direction 1 -4.48976e-011 -9.5122e-027   
     length 2.86444   
     axis 180 -30 -90   XYZ
    dof rx
    limits (-10.0 170.0)
  end
  begin
     id 20
     name lwrist
     direction 1 -4.48983e-011 -1.24047e-026   
     length 1.43222   
     axis 9.05591e-015 90 90   XYZ
    dof ry
    limits (-180.0 0.0)
 end
  begin
     id 21 
     name lhand
     direction 1 -4.4892e-011 -2.48094e-026   
     length 0.722123   
     axis 1.58305e-014 90 90   XYZ
    dof rx rz
    limits (-90.0 90.0)
           (-45.0 45.0)
  end
  begin
     id 22 
     name lfingers
     direction 1 -4.48895e-011 -4.96187e-026   
     length 0.582194   
     axis 3.1661e-014 90 90   XYZ
    dof rx
    limits (0.0 90.0)
  end
  begin
     id 23
     name lthumb
     direction 0.707107 -6.34961e-011 0.707107   
     length 0.835918   
     axis -90 45 2.85299e-015   XYZ
    dof rx rz
    limits (-45.0 45.0)
           (-45.0 45.0)
  end
  begin
     id 24 
     name rclavicle
     direction -0.932635 0.324218 -0.15835   
     length 3.65819  
     axis 0 0 0   XYZ 
    dof ry rz
    limits (-10.0 20.0)
           (-20.0 0.0)
  end
  begin
     id 25 
     name rhumerus
     direction -1 -4.48965e-011 -4.02296e-027  
     length 5.44729   
     axis 180 30 90   XYZ
    dof rx ry rz
    limits (-90.0 60.0)
           (-90.0 90.0)
           (-90.0 90.0)
  end
  begin
     id 26 
     name rradius
     direction -1 -4.48957e-011 -8.81087e-027   
     length 3.08821   
     axis 180 30 90   XYZ
    dof rx
    limits (-10.0 170.0)
  end
  begin
     id 27 
     name rwrist
     direction -1 -4.49015e-011 -1.24047e-026   
     length 1.5441   
     axis 9.05591e-015 -90 -90   XYZ
    dof ry
    limits (-180.0 0.0)
  end
  begin
     id 28
     name rhand
     direction -1 -4.4891e-011 -2.48094e-026   
     length 0.821049   
     axis 1.58305e-014 -90 -90   XYZ
    dof rx rz
    limits (-90.0 90.0)
           (-45.0 45.0)
  end
  begin
     id 29
     name rfingers
     direction -1 -4.48985e-011 -4.96187e-026   
     length 0.661951   
     axis 3.1661e-014 -90 -90   XYZ
    dof rx
    limits (0.0 90.0)
  end
  begin
     id 30
     name rthumb
     direction -0.707107 -6.34906e-011 0.707107   
     length 0.950433   
     axis -90 -45 -2.85299e-015   XYZ
    dof rx rz
    limits (-45.0 45.0)
           (-45.0 45.0)
  end
:hierarchy
  begin
    root lhipjoint rhipjoint lowerback
    lhipjoint lfemur
    lfemur ltibia
    ltibia lfoot
    lfoot ltoes
    rhipjoint rfemur
    rfemur rtibia
    rtibia rfoot
    rfoot rtoes
    lowerback upperback
    upperback thorax
    thorax lowerneck lclavicle rclavicle
    lowerneck upperneck
    upperneck head
    lclavicle lhumerus
    lhumerus lradius
    lradius lwrist
    lwrist lhand lthumb
    lhand lfingers
    rclavicle rhumerus
    rhumerus rradius
    rradius rwrist
    rwrist rhand rthumb
    rhand rfingers
  end

#!OML:ASF F:\VICON\USERDATA\INSTALL\rory3\rory3.ASF
:FULLY-SPECIFIED
:DEGREES
162
root -1.03314 17.4449 -7.84636 0.458223 33.8203 -1.80222
lowerback -2.032 0.970598 5.11021
upperback 2.47435 1.13122 -0.703978
thorax 3.81525 0.719224 -3.5342
lowerneck -2.32631 -3.87585 -3.11956
upperneck 12.3347 -5.497 4.62225
head 4.2809 -2.58738 1.67963
rclavicle -8.69683e-016 -2.38542e-015
rhumerus -34.4858 -11.2255 -83.2637
rradius 29.5948
rwrist 15.0283
rhand -7.14502 8.56551
rfingers 7.12502
rthumb 18.7313 -20.5526
lclavicle -8.69683e-016 -2.38542e-015
lhumerus -28.7531 -2.32327 87.7052
lradius 21.3575
lwrist 27.3671
lhand -12.8936 9.53696
lfingers 7.12502
lthumb 13.1957 39.0993
rfemur 10.0803 -3.20282 28.5036
rtibia 15.4818
rfoot -18.8484 2.65587
rtoes -2.83577
lfemur -20.5488 7.0038 -24.4313
ltibia 9.61921
lfoot -8.55759 -4.66977
ltoes -11.4021
163
root -0.993902 17.4476 -7.78752 0.855156 33.598 -1.41028
lowerback -2.03286 1.02857 4.67372
upperback 2.39536 1.23119 -0.853184
thorax 3.73529 0.755492 -3.43851
lowerneck -2.38256 -3.89472 -3.00413
upperneck 11.8878 -5.49562 4.47107
head 4.61605 -2.60752 1.79143
rclavicle -5.34234e-014 1.09332e-015
rhumerus -34.4418 -11.556 -83.2649
rradius 29.4395
rwrist 15.3088
rhand -7.16165 8.69365
rfingers 7.12502
rthumb 18.7153 -20.426
lclavicle -5.34234e-014 1.09332e-015
lhumerus -28.7015 -1.90694 87.4422
lradius 21.1207
lwrist 26.7352
lhand -12.6985 9.28301
lfingers 7.12502
lthumb 13.3838 38.8331
rfemur 10.0199 -2.74823 28.1872
rtibia 15.7139
rfoot -18.821 2.65211
rtoes -2.52179
lfemur -20.4292 7.11003 -24.7873
ltibia 9.50515
lfoot -8.19863 -4.93927
ltoes -12.178
164
root -0.955974 17.4507 -7.73142 1.50295 33.3445 -0.659109
lowerback -1.99899 1.04964 3.87801
upperback 2.25408 1.29751 -1.02841
thorax 3.5581 0.763219 -3.17047
lowerneck -2.38374 -3.87143 -3.10227
upperneck 12.1789 -5.49657 4.69981
head 4.24464 -2.58436 1.70026
rclavicle 1.799e-014 5.36719e-015
rhumerus -34.4159 -11.5928 -83.2622
rradius 29.2691
rwrist 15.4684
rhand -7.28637 8.78568
rfingers 7.12502
rthumb 18.5954 -20.3455
lclavicle 1.799e-014 5.36719e-015
lhumerus -28.8024 -1.68444 87.3508
lradius 21.0596
lwrist 26.6698
lhand -12.6158 9.31192
lfingers 7.12502
lthumb 13.4636 38.8568
rfemur 9.77815 -2.25677 27.5546
rtibia 16.1385
rfoot -18.866 2.60176
rtoes -2.43895
lfemur -20.2206 7.21764 -25.4909
ltibia 9.00262
lfoot -7.43494 -5.10856
ltoes -11.5082
165
root -0.913489 17.4533 -7.6701 1.94696 33.1069 -0.219386
lowerback -2.06241 1.08908 3.40764
upperback 2.17146 1.36955 -1.15121
thorax 3.50452 0.786318 -3.02869
lowerneck -2.41544 -3.87105 -3.19441
upperneck 12.0874 -5.49553 4.77046
head 4.22642 -2.58551 1.73672
rclavicle 6.5102e-015 -5.46658e-015
rhumerus -34.3819 -11.5985 -83.2894
rradius 29.2069
rwrist 15.4813
rhand -7.35762 8.78484
rfingers 7.12502
rthumb 18.5268 -20.3529
lclavicle 6.5102e-015 -5.46658e-015
lhumerus -28.8488 -1.71182 87.341
lradius 21.0231
lwrist 26.7286
lhand -12.671 9.50169
lfingers 7.12502
lthumb 13.4104 39.0501
rfemur 9.55937 -2.13467 27.1069
rtibia 16.6271
rfoot -18.8063 2.67891
rtoes -3.14214
lfemur -19.794 7.32713 -25.8996
ltibia 8.19814
lfoot -6.59813 -5.33804
ltoes -10.7555
166
root -0.857437 17.4572 -7.59986 2.04585 32.9218 -0.24755
lowerback -2.2588 1.13239 3.44744
upperback 2.17112 1.42212 -1.23571
thorax 3.623 0.816876 -3.13227
lowerneck -2.41444 -3.85617 -3.11079
upperneck 11.5953 -5.4529 4.6837
head 4.52691 -2.58528 1.88519
rclavicle 6.20581e-014 2.18663e-015
rhumerus -34.3765 -11.6943 -83.3848
rradius 29.2251
rwrist 15.5227
rhand -7.34458 8.75538
rfingers 7.12502
rthumb 18.5394 -20.3812
lclavicle 6.20581e-014 2.18663e-015
lhumerus -28.7985 -1.60464 87.1523
lradius 20.8394
lwrist 26.537
lhand -12.4968 9.57175
lfingers 7.12502
lthumb 13.5782 39.109
rfemur 9.60997 -2.24014 26.9877
rtibia 16.9277
rfoot -18.6194 2.93352
rtoes -3.43065
lfemur -19.3768 7.42031 -25.8642
ltibia 7.67209
lfoot -6.0347 -5.63165
ltoes -11.1652
167
root -0.801175 17.4646 -7.52942 2.13638 32.7387 -0.274031
lowerback -2.40719 1.15568 3.44617
upperback 2.14701 1.44973 -1.27441
thorax 3.68529 0.831822 -3.16763
lowerneck -2.32813 -3.83658 -3.11821
upperneck 11.4395 -5.42824 4.73353
head 4.45412 -2.57429 1.90581
rclavicle -1.6847e-014 1.37161e-014
rhumerus -34.4395 -11.7652 -83.3816
rradius 29.2584
rwrist 15.655
rhand -7.19119 8.80967
rfingers 7.12502
rthumb 18.6869 -20.3127
lclavicle -1.6847e-014 1.37161e-014
lhumerus -28.8151 -1.54089 87.0513
lradius 20.7337
lwrist 26.6038
lhand -12.363 9.62726
lfingers 7.12502
lthumb 13.7072 39.1558
rfemur 9.8279 -2.17139 26.9043
rtibia 16.9204
rfoot -18.3574 3.14143
rtoes -2.72082
lfemur -19.3649 7.50989 -25.8296
ltibia 7.907
lfoot -5.74037 -5.94472
ltoes -11.5946
168
root -0.756429 17.4742 -7.46784 2.23236 32.617 -0.312264
lowerback -2.31749 1.14197 3.43027
upperback 2.05649 1.43639 -1.30657
thorax 3.53995 0.82099 -3.19526
lowerneck -2.21907 -3.82416 -3.14922
upperneck 11.2823 -5.4061 4.72779
head 4.37514 -2.56843 1.91168
rclavicle 4.55217e-014 -5.76476e-015
rhumerus -34.4396 -11.8277 -83.4156
rradius 29.1586
rwrist 15.8214
rhand -7.18398 8.85035
rfingers 7.12502
rthumb 18.6939 -20.2714
lclavicle 4.55217e-014 -5.76476e-015
lhumerus -28.8983 -1.53235 86.9821
lradius 20.6949
lwrist 26.6659
lhand -12.4859 9.72748
lfingers 7.12502
lthumb 13.5887 39.264
rfemur 10.0447 -1.89592 26.9612
rtibia 16.7274
rfoot -18.0066 2.9711
rtoes -2.32207
lfemur -19.73 7.55093 -25.7452
ltibia 8.63737
lfoot -5.39507 -6.1776
ltoes -10.1205
